<svg width="80" height="80" viewBox="0 0 80 80" fill="none" xmlns="http://www.w3.org/2000/svg">
<path d="M10 71C22.6667 64.6667 51 44.9 63 16.5" stroke="#BADA86" stroke-width="4" stroke-linecap="round"/>
<path d="M48 37.5C45.6 19.5 58.3334 11.6667 65 10C71.4 31.2 58.3333 38.1667 51 39L48 37.5Z" fill="#BADA86"/>
<path d="M32.5 22C44.9 30.8 44.3333 40.6667 42.5 44.5L37 49C24.6 40.2 28.8333 27.3333 32.5 22Z" fill="#BADA86"/>
<path d="M67 50.5C55.8 43.7 46 46.6667 42.5 49L33.5 57C43.5 69 60 57.6667 67 50.5Z" fill="#BADA86"/>
<path d="M21 44.5C28.2 50.9 28.3333 55.5 27.5 57L24 61C16.4 56.6 18.8333 48.1667 21 44.5Z" fill="#BADA86"/>
<path d="M48 37.5C45.6 19.5 58.3334 11.6667 65 10C71.4 31.2 58.3333 38.1667 51 39L48 37.5Z" stroke="#BADA86"/>
<path d="M32.5 22C44.9 30.8 44.3333 40.6667 42.5 44.5L37 49C24.6 40.2 28.8333 27.3333 32.5 22Z" stroke="#BADA86"/>
<path d="M67 50.5C55.8 43.7 46 46.6667 42.5 49L33.5 57C43.5 69 60 57.6667 67 50.5Z" stroke="#BADA86"/>
<path d="M21 44.5C28.2 50.9 28.3333 55.5 27.5 57L24 61C16.4 56.6 18.8333 48.1667 21 44.5Z" stroke="#BADA86"/>
<path d="M60 20C58.8333 23.8333 56.5 30.9 50.5 36.5M34 30L36 37.5L40 45M47.5 37.5C41.8333 44.8333 26.2 61.5 9 69.5" stroke="#6EA490" stroke-linecap="round"/>
<path d="M35.5 54.5C38.5 54.8333 42.5 56.5 61 51.5" stroke="#6EA490" stroke-linecap="round"/>
<path d="M21.5 49C21.6667 51.6667 22.7 57.4 25.5 59" stroke="#6EA490" stroke-linecap="round"/>
</svg>
